<?xml version="1.0" encoding="UTF-8"?>
<svg width="93px" height="89px" viewBox="0 0 93 89" version="1.1" xmlns="http://www.w3.org/2000/svg" xmlns:xlink="http://www.w3.org/1999/xlink">
    <!-- Generator: Sketch 48.2 (47327) - http://www.bohemiancoding.com/sketch -->
    <title>jasmine-purple-vertical</title>
    <desc>Created with Sketch.</desc>
    <defs></defs>
    <g id="Page-1" stroke="none" stroke-width="1" fill="none" fill-rule="evenodd">
        <g id="jasmine-purple-vertical" fill="#8A4182">
            <g id="logo" transform="translate(14.000000, 0.000000)">
                <g transform="translate(32.500000, 32.500000) scale(1, -1) translate(-32.500000, -32.500000) ">
                    <polyline id="path36" fill-rule="nonzero" points="29.8964073 37.955523 34.9123512 37.955523 36.1583503 39.6708929 36.1583503 53.1087585 28.6507951 53.1087585 28.6507951 39.6698427 29.8964073 37.955523"></polyline>
                    <polyline id="path38" fill-rule="nonzero" points="26.6629889 31.9615391 28.2127636 36.7317432 26.9663223 38.4473895 14.1861395 42.5998724 11.8660374 35.4596556 24.6480995 31.3066752 26.6629889 31.9615391"></polyline>
                    <polyline id="path40" fill-rule="nonzero" points="31.3641029 27.0338648 27.3065774 29.9831845 25.2898087 29.3268282 17.3912585 18.4552466 23.4647236 14.0429847 31.3641029 24.9151743 31.3641029 27.0338648"></polyline>
                    <polyline id="path42" fill-rule="nonzero" points="37.5032313 29.9831845 33.4448214 27.0349702 33.4454294 24.9147874 41.3437585 14.0429847 47.4179422 18.4552466 39.5180655 29.3278784 37.5032313 29.9831845"></polyline>
                    <polyline id="path44" fill-rule="nonzero" points="36.5948895 36.7330697 38.1455485 31.9619813 40.1620961 31.3077806 52.9423895 35.4596556 50.622619 42.5998724 37.8415519 38.4467262 36.5948895 36.7330697"></polyline>
                    <path d="M32.4060927,64.7722789 C14.5506037,64.7722789 0.0235459184,50.2478741 0.0235459184,32.3948724 C0.0235459184,14.5354592 14.5506037,0.00668792517 32.4060927,0.00668792517 C50.260034,0.00668792517 64.7849915,14.5354592 64.7849915,32.3948724 C64.7849915,50.2478741 50.260034,64.7722789 32.4060927,64.7722789 Z M32.4060927,58.2164541 C46.6647491,58.2164541 58.2286139,46.657398 58.2286139,32.3948724 C58.2286139,18.1275383 46.6647491,6.56356293 32.4060927,6.56356293 C18.1417985,6.56356293 6.57997874,18.1275383 6.57997874,32.3948724 C6.57997874,46.657398 18.1417985,58.2164541 32.4060927,58.2164541 Z" id="path46" fill-rule="nonzero"></path>
                    <polyline id="path48" fill-rule="nonzero" points="52.0182398 25.1976148 42.303006 28.3548129 42.9457653 30.3339966 52.6605017 27.1767985 52.0182398 25.1976148"></polyline>
                    <polyline id="path50" fill-rule="nonzero" points="39.6277253 40.7949065 37.9443027 42.0178019 43.9480145 50.2826956 45.6318793 49.0600765 39.6277253 40.7949065"></polyline>
                    <polyline id="path52" fill-rule="nonzero" points="25.2850553 40.8706845 19.2819515 49.1352466 20.9658163 50.3584184 26.9689201 42.0933588 25.2850553 40.8706845"></polyline>
                    <polyline id="path54" fill-rule="nonzero" points="12.7506122 25.321756 12.1080187 27.3005527 21.822534 30.4560374 22.4648512 28.4772406 12.7506122 25.321756"></polyline>
                    <polygon id="path56" fill-rule="nonzero" points="31.2999872 11.7502976 33.3804626 11.7502976 33.3804626 21.9654677 31.2999872 21.9654677 31.2999872 11.7502976"></polygon>
                </g>
            </g>
            <g id="text" transform="translate(0.000000, 72.000000)">
                <g transform="translate(46.549051, 8.500000) scale(1, -1) translate(-46.549051, -8.500000) translate(0.147152, 0.000000)">
                    <path d="M3.38449367,5.08585 C3.40705696,4.07705 4.0143038,3.0458 5.13878956,3.0458 C5.81348101,3.0458 6.30815665,3.3666 6.645625,3.93965 C6.96028481,4.5129 6.96028481,5.36095 6.96028481,6.002825 L6.96028481,14.232425 L5.20623418,14.232425 L5.20623418,16.846 L11.7503244,16.846 L11.7503244,14.232425 L10.018837,14.232425 L10.018837,5.613175 C10.018837,4.1459 9.92858386,2.9999 8.91691456,1.807725 C8.01732595,0.753225 6.55561709,0.157225 5.16110759,0.157225 C2.2825712,0.157225 0.0784810127,2.10575 0.191297468,5.08585 L3.38449367,5.08585" id="path22" fill-rule="nonzero"></path>
                    <path d="M21.9599684,6.667375 C21.9599684,8.68495 20.3182437,10.3127 18.3392959,10.3127 C16.2929035,10.3127 14.7186234,8.593175 14.7186234,6.530175 C14.7186234,4.53555 16.3603481,2.88515 18.2944146,2.88515 C20.363125,2.88515 21.9599684,4.58145 21.9599684,6.667375 Z M21.915087,2.1287 C21.0378165,0.776275 19.6212342,0.157225 18.0469541,0.157225 C14.6060522,0.157225 11.8852136,3.06845 11.8852136,6.530175 C11.8852136,10.0834 14.6737421,13.040425 18.1818434,13.040425 C19.7335601,13.040425 21.082943,12.307025 21.915087,10.97735 L21.915087,12.719525 L26.2104509,12.719525 L26.2104509,10.10635 L24.7036155,10.10635 L24.7036155,3.0914 L26.2104509,3.0914 L26.2104509,0.478225 L21.915087,0.478225 L21.915087,2.1287 Z" id="path24" fill-rule="nonzero"></path>
                    <path d="M29.8308782,4.03145 C29.9208861,2.93105 30.6404589,2.19775 31.7649446,2.19775 C32.5970886,2.19775 33.4064241,2.79335 33.4064241,3.71035 C33.4064241,4.9255 32.2821835,5.13175 31.3600316,5.383875 C29.2685127,5.933975 26.9746598,6.599025 26.9746598,9.28085 C26.9746598,11.61925 28.9087263,12.971675 31.0453718,12.971675 C32.1244858,12.971675 33.091519,12.742275 33.7662104,11.871475 L33.7662104,12.719525 L35.7902848,12.719525 L35.7902848,9.3954 L33.1364003,9.3954 C33.091519,10.2668 32.4393908,10.83975 31.5849288,10.83975 C30.8427927,10.83975 30.0557753,10.4042 30.0557753,9.55605 C30.0557753,8.409875 31.1576978,8.1578 32.0347231,7.95155 C34.1934415,7.447175 36.5098576,6.759175 36.5098576,4.0082 C36.5098576,1.532525 34.4634652,0.157225 32.2147389,0.157225 C31,0.157225 29.8980775,0.546775 29.1110601,1.486725 L29.1110601,0.478225 L27.0197864,0.478225 L27.0197864,4.03145 L29.8308782,4.03145" id="path26" fill-rule="nonzero"></path>
                    <path d="M38.8034652,10.10635 L37.2519937,10.10635 L37.2519937,12.719525 L41.2998972,12.719525 L41.2998972,10.88565 C42.0645965,12.169325 43.2339636,13.017575 44.7631171,13.017575 C46.4271598,13.017575 47.8216693,11.986125 48.4961155,10.4501 C49.1484889,12.008875 50.7676503,13.017575 52.431693,13.017575 C53.7361946,13.017575 55.0181329,12.467575 55.894913,11.4588 C56.8396282,10.33535 56.8396282,9.1205 56.8396282,7.722375 L56.8396282,3.0914 L58.3913449,3.0914 L58.3913449,0.478225 L52.544019,0.478225 L52.544019,3.0914 L54.095981,3.0914 L54.095981,7.034275 C54.095981,7.836825 54.095981,8.54745 53.7361946,9.2582 C53.2864003,9.92275 52.544019,10.2668 51.7798101,10.2668 C51.0376741,10.2668 50.2278481,9.9457 49.7557358,9.35 C49.1933703,8.616125 49.1933703,7.928425 49.1933703,7.034275 L49.1933703,3.0914 L50.745087,3.0914 L50.745087,0.478225 L44.8980063,0.478225 L44.8980063,3.0914 L46.4499684,3.0914 L46.4499684,6.850975 C46.4499684,7.584675 46.4499684,8.50155 46.090182,9.14345 C45.7078323,9.87685 44.9205696,10.2668 44.1109889,10.2668 C43.3462896,10.2668 42.6941614,9.9916 42.1994858,9.37245 C41.5919937,8.616125 41.5471123,7.813875 41.5471123,6.873925 L41.5471123,3.0914 L43.0988291,3.0914 L43.0988291,0.478225 L37.2519937,0.478225 L37.2519937,3.0914 L38.8034652,3.0914 L38.8034652,10.10635" id="path28" fill-rule="nonzero"></path>
                    <path d="M63.585807,13.888675 L60.8421598,13.888675 L60.8421598,16.846 L63.585807,16.846 L63.585807,13.888675 Z M63.585807,3.0914 L65.1375237,3.0914 L65.1375237,0.478225 L59.2678797,0.478225 L59.2678797,3.0914 L60.8421598,3.0914 L60.8421598,10.10635 L59.290443,10.10635 L59.290443,12.719525 L63.585807,12.719525 L63.585807,3.0914 Z" id="path30" fill-rule="nonzero"></path>
                    <path d="M67.5211392,10.10635 L65.9694225,10.10635 L65.9694225,12.719525 L70.2647864,12.719525 L70.2647864,10.97735 C70.9846044,12.329875 72.3337421,12.994825 73.817769,12.994825 C75.1222706,12.994825 76.4039636,12.444425 77.2812342,11.48165 C78.2705854,10.3583 78.2931487,9.28085 78.2931487,7.882725 L78.2931487,3.0914 L79.8448655,3.0914 L79.8448655,0.478225 L73.9980301,0.478225 L73.9980301,3.0914 L75.5495016,3.0914 L75.5495016,7.057325 C75.5495016,7.813875 75.5495016,8.593175 75.077144,9.2582 C74.5824684,9.92275 73.7728877,10.24355 72.963307,10.24355 C72.131163,10.24355 71.2767009,9.8998 70.7820253,9.2123 C70.2647864,8.5248 70.2647864,7.470125 70.2647864,6.644625 L70.2647864,3.0914 L71.8162579,3.0914 L71.8162579,0.478225 L65.9694225,0.478225 L65.9694225,3.0914 L67.5211392,3.0914 L67.5211392,10.10635" id="path32" fill-rule="nonzero"></path>
                    <path d="M90.1668354,7.699125 C89.6949684,9.46425 88.1655696,10.5878 86.3889557,10.5878 C84.7693038,10.5878 83.2178323,9.3041 82.8806092,7.699125 L90.1668354,7.699125 Z M92.2581092,4.07705 C91.3136392,1.738975 89.0877215,0.157225 86.5915348,0.157225 C83.0826978,0.157225 80.2718513,2.954 80.2718513,6.553125 C80.2718513,10.1752 82.9480538,13.086325 86.5235997,13.086325 C88.1881329,13.086325 89.8521756,12.329875 91.0212975,11.11475 C92.2137184,9.83115 92.708394,8.272375 92.708394,6.530175 L92.6183861,5.544325 L82.9031725,5.544325 C83.2629589,3.84775 84.7923576,2.61025 86.5015269,2.61025 C87.693212,2.61025 88.7274446,3.06845 89.4023813,4.07705 L92.2581092,4.07705 Z" id="path34" fill-rule="nonzero"></path>
                </g>
            </g>
        </g>
    </g>
</svg>