<?xml version="1.0" encoding="UTF-8" standalone="no"?>
<!-- Created with Inkscape (http://www.inkscape.org/) -->

<svg
   xmlns:dc="http://purl.org/dc/elements/1.1/"
   xmlns:cc="http://creativecommons.org/ns#"
   xmlns:rdf="http://www.w3.org/1999/02/22-rdf-syntax-ns#"
   xmlns:svg="http://www.w3.org/2000/svg"
   xmlns="http://www.w3.org/2000/svg"
   xmlns:inkscape="http://www.inkscape.org/namespaces/inkscape"
   version="1.1"
   width="308.58749"
   height="110.2"
   id="svg2"
   xml:space="preserve"><metadata
     id="metadata8"><rdf:RDF><cc:Work
         rdf:about=""><dc:format>image/svg+xml</dc:format><dc:type
           rdf:resource="http://purl.org/dc/dcmitype/StillImage" /></cc:Work></rdf:RDF></metadata><defs
     id="defs6"><clipPath
       id="clipPath18"><path
         d="M 0,881.641 0,0 l 2468.68,0 0,881.641 -2468.68,0 z"
         inkscape:connector-curvature="0"
         id="path20" /></clipPath></defs><g
     transform="matrix(1.25,0,0,-1.25,0,110.2)"
     id="g10"><g
       transform="scale(0.1,0.1)"
       id="g12"><g
         id="g14"><g
           clip-path="url(#clipPath18)"
           id="g16"><path
             d="m 891.852,441.152 c 0,-68.007 -55.129,-123.125 -123.129,-123.125 -68.004,0 -123.133,55.118 -123.133,123.125 0,68.004 55.129,123.129 123.133,123.129 68,0 123.129,-55.125 123.129,-123.129"
             inkscape:connector-curvature="0"
             id="path22"
             style="fill:#ffffff;fill-opacity:1;fill-rule:nonzero;stroke:none" /><path
             d="M 905.277,764.633 877.23,775.59 c -10.253,4 -22.792,-0.711 -27.871,-10.473 L 735.277,545.855 c 11.035,3.676 22.836,5.739 35.196,5.739 45.679,0 84.144,-27.375 101.48,-66.223 l 48.207,252.348 c 2.07,10.808 -4.629,22.918 -14.883,26.914 z M 663.492,407.891 531.156,166.008 c -5.078,-9.758 -1.57,-22.461 7.793,-28.235 L 758.316,2.60938 c 9.364,-5.77344 18.719,-1.652349 20.782,9.16012 L 847.699,358.41 c -20.011,-19.582 -47.179,-31.797 -77.226,-31.797 -50.825,0 -93.493,34.746 -106.981,81.278"
             inkscape:connector-curvature="0"
             id="path24"
             style="fill:#1574c4;fill-opacity:1;fill-rule:nonzero;stroke:none" /><path
             d="M 983.852,305.508 879.879,418.516 c -7.356,-39.422 -35.336,-71.993 -72.363,-85.332 L 940.453,228.32 c 8.633,-6.804 20.039,-4.5 25.352,5.137 l 21.933,39.824 c 5.313,9.629 3.567,24.129 -3.886,32.227 z M 431.977,875.855 310.043,750.941 c -7.68,-7.871 -6.902,-19.886 1.734,-26.699 L 659.52,449.934 c 4.957,52.586 45.746,95.136 98.585,100.945 l -298.617,324.57 c -7.445,8.098 -19.832,8.278 -27.511,0.406"
             inkscape:connector-curvature="0"
             id="path26"
             style="fill:#cbdaf2;fill-opacity:1;fill-rule:nonzero;stroke:none" /><path
             d="m 1343.87,566.715 -20.67,38.847 c -5.17,9.711 -18.22,15.915 -29.02,13.778 L 837.324,529.043 c 27.133,-20.602 44.535,-53.309 44.535,-89.906 0,-19.575 -5.105,-38.09 -14.004,-54.254 l 466.465,157.769 c 10.42,3.52 14.72,14.352 9.55,24.063 z M 658.984,439.137 c 0,21.09 5.86,40.843 15.926,57.808 L 106.559,384.609 C 95.7656,382.48 90.2969,372.383 94.4102,362.188 L 171.582,170.461 c 4.109,-10.207 15.996,-15.676 26.414,-12.149 L 725,336.562 c -38.926,17.747 -66.016,57.344 -66.016,102.575"
             inkscape:connector-curvature="0"
             id="path28"
             style="fill:#83aadf;fill-opacity:1;fill-rule:nonzero;stroke:none" /><path
             d="m 770.453,504.805 c 36.406,0 65.059,-29.707 65.059,-65.684 0,-35.84 -29.063,-65.723 -65.059,-65.723 -36.035,0 -65.121,29.883 -65.121,65.723 0,35.977 28.656,65.684 65.121,65.684"
             inkscape:connector-curvature="0"
             id="path30"
             style="fill:#c4122e;fill-opacity:1;fill-rule:nonzero;stroke:none" /><path
             d="m 770.453,504.805 c 36.406,0 65.059,-29.707 65.059,-65.684 0,-35.84 -29.063,-65.723 -65.059,-65.723 -36.035,0 -65.121,29.883 -65.121,65.723 0,35.977 28.656,65.684 65.121,65.684 z"
             inkscape:connector-curvature="0"
             id="path32"
             style="fill:none;stroke:#c4122e;stroke-width:15;stroke-linecap:butt;stroke-linejoin:miter;stroke-miterlimit:4;stroke-opacity:1;stroke-dasharray:none" /><path
             d="m 37.4219,453.77 24.9609,0 c 13.2227,0 26.4063,4.57 26.4063,20.39 0,17.52 -17.7539,19.922 -32.1485,19.922 l -19.2187,0 0,-40.312 z M 0,525.781 l 63.125,0 c 35.2734,0 64.551,-11.289 64.551,-51.621 0,-39.824 -27.129,-52.051 -62.8908,-52.051 l -27.3633,0 0,-66.25 -37.4219,0 0,169.922"
             inkscape:connector-curvature="0"
             id="path34"
             style="fill:#231f20;fill-opacity:1;fill-rule:nonzero;stroke:none" /><path
             d="m 273.125,355.859 37.4414,0 0,169.922 -37.4414,0 0,-169.922 z"
             inkscape:connector-curvature="0"
             id="path36"
             style="fill:#231f20;fill-opacity:1;fill-rule:nonzero;stroke:none" /><path
             d="m 427.852,525.781 42.714,0 41.993,-111.367 0.488,0 42.715,111.367 40.078,0 -70.078,-169.922 -30,0 -67.91,169.922"
             inkscape:connector-curvature="0"
             id="path38"
             style="fill:#231f20;fill-opacity:1;fill-rule:nonzero;stroke:none" /><path
             d="m 1020.61,492.676 -48.458,0 0,33.105 134.418,0 0,-33.105 -48.52,0 0,-136.817 -37.44,0 0,136.817"
             inkscape:connector-curvature="0"
             id="path40"
             style="fill:#231f20;fill-opacity:1;fill-rule:nonzero;stroke:none" /><path
             d="m 1268.19,476.328 -20.63,-52.793 41.49,0 -20.86,52.793 z m -14.42,49.453 31,0 73.89,-169.922 -42.25,0 -14.61,36.016 -66.01,0 -14.14,-36.016 -41.29,0 73.41,169.922"
             inkscape:connector-curvature="0"
             id="path42"
             style="fill:#231f20;fill-opacity:1;fill-rule:nonzero;stroke:none" /><path
             d="m 1458.91,525.781 37.44,0 0,-135.39 69.36,0 0,-34.532 -106.8,0 0,169.922"
             inkscape:connector-curvature="0"
             id="path44"
             style="fill:#231f20;fill-opacity:1;fill-rule:nonzero;stroke:none" /><path
             d="m 1723.68,525.586 20.09,0 0,-150.859 77.6,0 0,-18.672 -97.69,0 0,169.531"
             inkscape:connector-curvature="0"
             id="path46"
             style="fill:#231f20;fill-opacity:1;fill-rule:nonzero;stroke:none" /><path
             d="m 1991.35,499.707 -0.49,0 -35.21,-83.32 69.22,0 -33.52,83.32 z m -9.1,25.879 18.87,0 72.13,-169.531 -23.5,0 -17.21,41.64 -84.8,0 -17.46,-41.64 -22.74,0 74.71,169.531"
             inkscape:connector-curvature="0"
             id="path48"
             style="fill:#231f20;fill-opacity:1;fill-rule:nonzero;stroke:none" /><path
             d="m 2176.67,374.727 34.02,0 c 19.65,0 40.96,7.91 40.96,29.472 0,23.672 -20.1,30.84 -40.47,30.84 l -34.51,0 0,-60.312 z m 0,79.043 27.81,0 c 18.88,0 38.57,4.082 38.57,27.519 0,20.82 -18.22,25.625 -36.44,25.625 l -29.94,0 0,-53.144 z m -20.1,71.816 51.74,0 c 28,0 56.28,-10.527 56.28,-41.641 0,-19.648 -11.52,-32.851 -29.7,-38.32 l 0,-0.508 c 21.79,-1.894 38.32,-19.375 38.32,-41.64 0,-37.383 -34.73,-47.422 -66.1,-47.422 l -50.54,0 0,169.531"
             inkscape:connector-curvature="0"
             id="path50"
             style="fill:#231f20;fill-opacity:1;fill-rule:nonzero;stroke:none" /><path
             d="m 2449.28,495.625 c -6.7,10.82 -18.69,15.586 -30.94,15.586 -17.65,0 -36.09,-8.359 -36.09,-28.496 0,-15.527 8.56,-22.481 35.67,-31.153 26.3,-8.339 50.76,-16.953 50.76,-50.234 0,-33.808 -28.95,-49.609 -59.65,-49.609 -19.63,0 -40.69,6.445 -52.21,23.476 l 17.27,14.141 c 7.15,-12.441 21.56,-18.945 36.15,-18.945 17.25,0 36.87,10.117 36.87,29.472 0,20.86 -14.12,24.434 -44.29,34.473 -23.97,7.93 -42.19,18.476 -42.19,46.719 0,32.578 28.07,48.867 57.71,48.867 18.97,0 34.99,-5.274 47.47,-19.883 l -16.53,-14.414"
             inkscape:connector-curvature="0"
             id="path52"
             style="fill:#231f20;fill-opacity:1;fill-rule:nonzero;stroke:none" /></g></g></g></g></svg>