<?xml version="1.0" encoding="UTF-8"?>
<svg width="202px" height="54px" viewBox="0 0 202 54" version="1.1" xmlns="http://www.w3.org/2000/svg" xmlns:xlink="http://www.w3.org/1999/xlink">
    <!-- Generator: Sketch 48.2 (47327) - http://www.bohemiancoding.com/sketch -->
    <title>github-logo</title>
    <desc>Created with Sketch.</desc>
    <defs></defs>
    <g id="Page-1" stroke="none" stroke-width="1" fill="none" fill-rule="evenodd">
        <g id="github-logo" fill="#11110F">
            <g id="Group">
                <path d="M124.774832,2.89251265 C124.774832,2.45874598 124.430905,2.10875636 123.999894,2.10875636 L114.606944,2.10875636 C114.178138,2.10875636 113.829251,2.45874598 113.829251,2.89251265 C113.829251,2.8947173 113.832007,21.0451239 113.832007,21.0451239 L99.190315,21.0451239 L99.190315,2.89251265 C99.190315,2.45874598 98.8452859,2.10875636 98.4153774,2.10875636 L89.0229787,2.10875636 C88.5958261,2.10875636 88.2469388,2.45874598 88.2469388,2.89251265 L88.2469388,52.0442834 C88.2469388,52.47805 88.5958261,52.8307955 89.0229787,52.8307955 L98.4153774,52.8307955 C98.8452859,52.8307955 99.190315,52.47805 99.190315,52.0442834 L99.190315,31.0206549 L113.832007,31.0206549 C113.832007,31.0206549 113.806102,52.0426299 113.806102,52.0442834 C113.806102,52.47805 114.154438,52.8307955 114.584347,52.8307955 L123.999343,52.8307955 C124.429803,52.8307955 124.77373,52.47805 124.774832,52.0442834 L124.774832,2.89251265" id="Fill-13"></path>
                <path d="M56.5268558,9.3427938 C56.5268558,5.96029568 53.8156764,3.22706965 50.4701063,3.22706965 C47.1278432,3.22706965 44.413908,5.96029568 44.413908,9.3427938 C44.413908,12.7214338 47.1278432,15.4618249 50.4701063,15.4618249 C53.8156764,15.4618249 56.5268558,12.7214338 56.5268558,9.3427938" id="Fill-14"></path>
                <path d="M55.8555371,41.6763231 C55.8555371,40.4163605 55.8555371,18.9876259 55.8555371,18.9876259 C55.8555371,18.556615 55.5077522,18.2044208 55.0783948,18.2044208 L45.7146568,18.2044208 C45.2852994,18.2044208 44.9011376,18.6475572 44.9011376,19.0785681 C44.9011376,19.0785681 44.9011376,46.3799631 44.9011376,51.5840608 C44.9011376,52.5392293 45.4963955,52.8236303 46.2663727,52.8236303 C46.2663727,52.8236303 50.2634195,52.8236303 54.7025005,52.8236303 C55.6284573,52.8236303 55.8555371,52.3689194 55.8555371,51.5686282 C55.8555371,49.8263964 55.8555371,43.000772 55.8555371,41.6763231" id="Fill-15"></path>
                <path d="M160.47212,18.278828 L151.151372,18.278828 C150.72422,18.278828 150.375884,18.6310223 150.375884,19.0642378 L150.375884,43.1650191 C150.375884,43.1650191 148.007529,44.89733 144.646526,44.89733 C141.286075,44.89733 140.39429,43.3722571 140.39429,40.0818035 C140.39429,36.7869405 140.39429,19.0642378 140.39429,19.0642378 C140.39429,18.6310223 140.047056,18.278828 139.618801,18.278828 L130.158609,18.278828 C129.732008,18.278828 129.382018,18.6310223 129.382018,19.0642378 C129.382018,19.0642378 129.382018,31.8986603 129.382018,41.6730161 C129.382018,51.4479231 134.829731,53.839427 142.323918,53.839427 C148.472712,53.839427 153.429888,50.4425986 153.429888,50.4425986 C153.429888,50.4425986 153.665786,52.2327817 153.772712,52.4449801 C153.879087,52.6566274 154.157425,52.8704793 154.458361,52.8704793 L160.476529,52.8434723 C160.903131,52.8434723 161.25312,52.4907268 161.25312,52.0591648 L161.249813,19.0642378 C161.249813,18.6310223 160.902028,18.278828 160.47212,18.278828" id="Fill-16"></path>
                <path d="M182.271788,44.8675671 C179.038656,44.7694597 176.845571,43.3022591 176.845571,43.3022591 L176.845571,27.7368152 C176.845571,27.7368152 179.008893,26.4107128 181.663302,26.173712 C185.019896,25.8733272 188.25413,26.8869192 188.25413,34.8942408 C188.25413,43.3375337 186.794646,45.0042559 182.271788,44.8675671 Z M185.948057,17.1742938 C180.65412,17.1742938 177.05336,19.536586 177.05336,19.536586 L177.05336,2.89251265 C177.05336,2.45874598 176.706126,2.10875636 176.278423,2.10875636 L166.858466,2.10875636 C166.430211,2.10875636 166.082426,2.45874598 166.082426,2.89251265 L166.082426,52.0442834 C166.082426,52.47805 166.430211,52.8307955 166.859568,52.8307955 C166.86067,52.8307955 173.393075,52.8307955 173.39528,52.8307955 C173.689602,52.8307955 173.912272,52.6792252 174.077071,52.4135637 C174.239664,52.1495558 174.473909,50.1471743 174.473909,50.1471743 C174.473909,50.1471743 178.325449,53.7969873 185.616807,53.7969873 C194.177498,53.7969873 199.086723,49.4549113 199.086723,34.3050456 C199.086723,19.1540776 191.245853,17.1742938 185.948057,17.1742938 Z" id="Fill-17"></path>
                <path d="M82.851587,18.2000114 L75.8054967,18.2000114 C75.8054967,18.2000114 75.7950246,8.89359452 75.7950246,8.89194103 C75.7950246,8.53919558 75.6131402,8.36337402 75.2058294,8.36337402 L65.6045394,8.36337402 C65.2308497,8.36337402 65.0307769,8.52762112 65.0307769,8.88642938 L65.0307769,18.5053567 C65.0307769,18.5053567 60.2191085,19.667212 59.8933702,19.76091 C59.5698364,19.854608 59.3311821,20.1533393 59.3311821,20.5099429 L59.3311821,26.5545668 C59.3311821,26.9894358 59.6784159,27.3399766 60.1077732,27.3399766 L65.0307769,27.3399766 C65.0307769,27.3399766 65.0307769,33.6623875 65.0307769,41.8819076 C65.0307769,52.6830833 72.6070876,53.7440755 77.7191407,53.7440755 C80.0555281,53.7440755 82.8499335,52.9939402 83.3112584,52.8236303 C83.5901477,52.7211137 83.7521902,52.4317522 83.7521902,52.1186906 L83.7604576,45.469439 C83.7604576,45.0356723 83.3939331,44.6845804 82.9816618,44.6845804 C82.5704929,44.6845804 81.5205241,44.8515833 80.4391388,44.8515833 C76.9778241,44.8515833 75.8054967,43.2421822 75.8054967,41.1593306 C75.8054967,39.0781324 75.8049455,27.3399766 75.8049455,27.3399766 L82.851587,27.3399766 C83.2809443,27.3399766 83.6287293,26.9894358 83.6287293,26.5545668 L83.6287293,18.9832166 C83.6287293,18.5494499 83.2809443,18.2000114 82.851587,18.2000114" id="Fill-18"></path>
                <path d="M38.8019484,23.1423058 L22.1198447,23.1423058 C21.689385,23.1423058 21.3404977,23.4911931 21.3404977,23.922204 L21.3404977,32.07834 C21.3404977,32.5082485 21.689385,32.8587893 22.1198447,32.8587893 L28.627447,32.8587893 L28.627447,42.9919534 C28.627447,42.9919534 27.1663092,43.4902063 23.1262715,43.4902063 C18.3603499,43.4902063 11.7022796,41.7490769 11.7022796,27.1079362 C11.7022796,12.4640398 18.6353811,10.5371678 25.1440857,10.5371678 C30.778643,10.5371678 33.2054215,11.5287132 34.7503363,12.0071242 C35.2359124,12.1553876 35.6845605,11.6725672 35.6845605,11.2415564 L37.5452928,3.36155385 C37.5452928,3.15982755 37.4769483,2.91676389 37.2476638,2.7525168 C36.6204383,2.30497101 32.7937014,0.163695933 23.1262715,0.163695933 C11.9899876,0.163695933 0.565995702,4.90150819 0.565995702,27.6789429 C0.565995702,50.4563777 13.6451354,53.8504503 24.666777,53.8504503 C33.7924119,53.8504503 39.3283107,49.9509596 39.3283107,49.9509596 C39.556493,49.8247429 39.5812954,49.5061696 39.5812954,49.360111 L39.5812954,23.922204 C39.5812954,23.4911931 39.2324081,23.1423058 38.8019484,23.1423058" id="Fill-11"></path>
            </g>
        </g>
    </g>
</svg>