<?xml version="1.0" encoding="UTF-8" standalone="no"?>
<!-- Created with Inkscape (http://www.inkscape.org/) -->
<svg
   xmlns:dc="http://purl.org/dc/elements/1.1/"
   xmlns:cc="http://creativecommons.org/ns#"
   xmlns:rdf="http://www.w3.org/1999/02/22-rdf-syntax-ns#"
   xmlns:svg="http://www.w3.org/2000/svg"
   xmlns="http://www.w3.org/2000/svg"
   xmlns:inkscape="http://www.inkscape.org/namespaces/inkscape"
   version="1.1"
   width="270"
   height="270"
   id="svg2"
   xml:space="preserve"><metadata
     id="metadata8"><rdf:RDF><cc:Work
         rdf:about=""><dc:format>image/svg+xml</dc:format><dc:type
           rdf:resource="http://purl.org/dc/dcmitype/StillImage" /></cc:Work></rdf:RDF></metadata><defs
     id="defs6" /><g
     transform="matrix(1.25,0,0,-1.25,0,270)"
     id="g10"><g
       transform="scale(0.1,0.1)"
       id="g12"><path
         d="m 128.633,209.941 c 0.5,-21.863 13.906,-44.222 38.75,-44.222 14.902,0 25.832,6.961 33.293,19.383 6.953,12.418 6.953,30.796 6.953,44.707 l 0,178.363 -38.75,0 0,56.637 144.566,0 0,-56.637 -38.25,0 0,-186.801 c 0,-31.801 -1.992,-56.641 -24.343,-82.473 -19.875,-22.859 -52.168,-35.777 -82.969,-35.777 -63.598,0 -112.2892,42.231 -109.8049,106.82 l 70.5549,0"
         inkscape:connector-curvature="0"
         id="path14"
         style="fill:#8a4182;fill-opacity:1;fill-rule:nonzero;stroke:none" /><path
         d="m 539.016,244.219 c 0,43.722 -36.274,79 -79.993,79 -45.214,0 -79.992,-37.258 -79.992,-81.981 0,-43.218 36.274,-78.988 78.996,-78.988 45.703,0 80.989,36.762 80.989,81.969 z m -0.996,-98.367 c -19.375,-29.313 -50.684,-42.731 -85.461,-42.731 -76.016,0 -136.121,63.098 -136.121,138.117 0,77.012 61.597,141.102 139.097,141.102 34.289,0 64.094,-15.899 82.485,-44.711 l 0,37.75 94.89,0 0,-56.629 -33.293,0 0,-152.031 33.293,0 0,-56.637 -94.89,0 0,35.77"
         inkscape:connector-curvature="0"
         id="path16"
         style="fill:#8a4182;fill-opacity:1;fill-rule:nonzero;stroke:none" /><path
         d="m 712.891,187.078 c 1.992,-23.84 17.89,-39.738 42.722,-39.738 18.391,0 36.274,12.922 36.274,32.789 0,26.332 -24.836,30.801 -45.207,36.269 -46.211,11.922 -96.883,26.332 -96.883,84.461 0,50.672 42.723,79.993 89.922,79.993 23.843,0 45.215,-4.973 60.117,-23.852 l 0,18.379 44.715,0 0,-72.039 -58.621,0 c -0.996,18.879 -15.403,31.301 -34.282,31.301 -16.394,0 -33.789,-9.43 -33.789,-27.821 0,-24.84 24.348,-30.308 43.723,-34.781 47.695,-10.93 98.867,-25.828 98.867,-85.449 0,-53.66 -45.207,-83.469 -94.89,-83.469 -26.829,0 -51.172,8.449 -68.567,28.82 l 0,-21.859 -46.199,0 0,76.996 62.098,0"
         inkscape:connector-curvature="0"
         id="path18"
         style="fill:#8a4182;fill-opacity:1;fill-rule:nonzero;stroke:none" /><path
         d="m 911.121,318.75 -34.273,0 0,56.629 89.422,0 0,-39.75 c 16.894,27.832 42.72,46.211 76.51,46.211 36.76,0 67.57,-22.36 82.47,-55.641 14.41,33.781 50.18,55.641 86.95,55.641 28.82,0 57.14,-11.918 76.51,-33.781 20.87,-24.348 20.87,-50.68 20.87,-80.981 l 0,-100.359 34.28,0 0,-56.637 -129.18,0 0,56.637 34.28,0 0,85.453 c 0,17.387 0,32.789 -7.94,48.187 -9.95,14.411 -26.34,21.86 -43.23,21.86 -16.39,0 -34.28,-6.949 -44.71,-19.867 -12.43,-15.903 -12.43,-30.801 -12.43,-50.18 l 0,-85.453 34.28,0 0,-56.637 -129.17,0 0,56.637 34.28,0 0,81.472 c 0,15.899 0,35.77 -7.95,49.688 -8.45,15.902 -25.83,24.34 -43.72,24.34 -16.89,0 -31.3,-5.957 -42.225,-19.367 -13.418,-16.403 -14.407,-33.793 -14.407,-54.161 l 0,-81.972 34.282,0 0,-56.637 -129.172,0 0,56.637 34.273,0 0,152.031"
         inkscape:connector-curvature="0"
         id="path20"
         style="fill:#8a4182;fill-opacity:1;fill-rule:nonzero;stroke:none" /><path
         d="m 1458.63,400.719 -60.61,0 0,64.09 60.61,0 0,-64.09 z m 0,-234 34.28,0 0,-56.637 -129.67,0 0,56.637 34.78,0 0,152.031 -34.28,0 0,56.629 94.89,0 0,-208.66"
         inkscape:connector-curvature="0"
         id="path22"
         style="fill:#8a4182;fill-opacity:1;fill-rule:nonzero;stroke:none" /><path
         d="m 1545.57,318.75 -34.28,0 0,56.629 94.89,0 0,-37.75 c 15.9,29.312 45.7,43.723 78.5,43.723 28.82,0 57.14,-11.93 76.51,-32.801 21.87,-24.34 22.35,-47.692 22.35,-78 l 0,-103.832 34.29,0 0,-56.637 -129.18,0 0,56.637 34.29,0 0,85.953 c 0,16.387 0,33.289 -10.44,47.687 -10.93,14.411 -28.82,21.371 -46.7,21.371 -18.38,0 -37.26,-7.46 -48.19,-22.359 -11.43,-14.91 -11.43,-37.762 -11.43,-55.641 l 0,-77.011 34.28,0 0,-56.637 -129.17,0 0,56.637 34.28,0 0,152.031"
         inkscape:connector-curvature="0"
         id="path24"
         style="fill:#8a4182;fill-opacity:1;fill-rule:nonzero;stroke:none" /><path
         d="m 2045.87,266.582 c -10.43,38.25 -44.22,62.598 -83.47,62.598 -35.77,0 -70.05,-27.821 -77.5,-62.598 l 160.97,0 z m 46.21,-78.504 c -20.87,-50.68 -70.06,-84.957 -125.2,-84.957 -77.5,0 -139.61,60.617 -139.61,138.617 0,78.492 59.13,141.59 138.12,141.59 36.76,0 73.53,-16.387 99.37,-42.719 26.32,-27.828 37.25,-61.609 37.25,-99.371 l -1.98,-21.359 -214.63,0 c 7.95,-36.77 41.73,-63.598 79.49,-63.598 26.33,0 49.18,9.938 64.09,31.797 l 63.1,0"
         inkscape:connector-curvature="0"
         id="path26"
         style="fill:#8a4182;fill-opacity:1;fill-rule:nonzero;stroke:none" /><path
         d="m 1027.47,1474.84 108.87,0 27.05,37.24 0,291.65 -162.95,0 0,-291.68 27.03,-37.21"
         inkscape:connector-curvature="0"
         id="path28"
         style="fill:#8a4182;fill-opacity:1;fill-rule:nonzero;stroke:none" /><path
         d="m 957.297,1344.76 33.633,103.53 -27.051,37.23 -277.387,90.12 -50.347,-154.96 277.417,-90.14 43.735,14.22"
         inkscape:connector-curvature="0"
         id="path30"
         style="fill:#8a4182;fill-opacity:1;fill-rule:nonzero;stroke:none" /><path
         d="m 1059.33,1237.81 -88.068,64 -43.774,-14.23 -171.426,-235.96 131.821,-95.768 171.447,235.968 0,45.99"
         inkscape:connector-curvature="0"
         id="path32"
         style="fill:#8a4182;fill-opacity:1;fill-rule:nonzero;stroke:none" /><path
         d="m 1192.57,1301.82 -88.09,-63.99 0.02,-46.02 171.43,-235.958 131.83,95.768 -171.46,235.98 -43.73,14.22"
         inkscape:connector-curvature="0"
         id="path34"
         style="fill:#8a4182;fill-opacity:1;fill-rule:nonzero;stroke:none" /><path
         d="m 1172.86,1448.31 33.65,-103.54 43.77,-14.21 277.39,90.12 -50.36,154.97 -277.4,-90.14 -27.05,-37.2"
         inkscape:connector-curvature="0"
         id="path36"
         style="fill:#8a4182;fill-opacity:1;fill-rule:nonzero;stroke:none" /><path
         d="m 1081.94,2056.88 c -387.538,0 -702.831,-315.24 -702.831,-702.72 0,-387.621 315.293,-702.949 702.831,-702.949 387.5,0 702.76,315.328 702.76,702.949 0,387.48 -315.26,702.72 -702.76,702.72 l 0,0 z m 0,-142.29 c 309.48,0 560.45,-250.88 560.45,-560.43 0,-309.65 -250.97,-560.64 -560.45,-560.64 -309.585,0 -560.522,250.99 -560.522,560.64 0,309.55 250.937,560.43 560.522,560.43"
         inkscape:connector-curvature="0"
         id="path38"
         style="fill:#8a4182;fill-opacity:1;fill-rule:nonzero;stroke:none" /><path
         d="m 1507.61,1197.96 -210.86,68.52 13.94,42.95 210.86,-68.52 -13.94,-42.95"
         inkscape:connector-curvature="0"
         id="path40"
         style="fill:#8a4182;fill-opacity:1;fill-rule:nonzero;stroke:none" /><path
         d="m 1238.68,1536.48 -36.54,26.54 130.31,179.37 36.54,-26.54 -130.31,-179.37"
         inkscape:connector-curvature="0"
         id="path42"
         style="fill:#8a4182;fill-opacity:1;fill-rule:nonzero;stroke:none" /><path
         d="m 927.395,1538.11 -130.293,179.38 36.543,26.54 130.293,-179.37 -36.543,-26.55"
         inkscape:connector-curvature="0"
         id="path44"
         style="fill:#8a4182;fill-opacity:1;fill-rule:nonzero;stroke:none" /><path
         d="m 655.344,1200.64 -13.949,42.95 210.839,68.49 13.95,-42.95 -210.84,-68.49"
         inkscape:connector-curvature="0"
         id="path46"
         style="fill:#8a4182;fill-opacity:1;fill-rule:nonzero;stroke:none" /><path
         d="m 1057.94,906.09 45.1602,0 0,221.719 -45.1602,0 0,-221.719 z"
         inkscape:connector-curvature="0"
         id="path48"
         style="fill:#8a4182;fill-opacity:1;fill-rule:nonzero;stroke:none" /></g></g></svg>