<?xml version="1.0" encoding="UTF-8"?>
<svg width="100px" height="100px" viewBox="0 0 100 100" version="1.1" xmlns="http://www.w3.org/2000/svg" xmlns:xlink="http://www.w3.org/1999/xlink">
    <!-- Generator: Sketch 48.2 (47327) - http://www.bohemiancoding.com/sketch -->
    <title>jasmine-white-circle copy</title>
    <desc>Created with Sketch.</desc>
    <defs></defs>
    <g id="Page-1" stroke="none" stroke-width="1" fill="none" fill-rule="evenodd">
        <g id="jasmine-white-circle-copy" fill="#FFFFFF" fill-rule="nonzero">
            <g id="logo">
                <g transform="translate(50.000000, 50.000000) scale(1, -1) translate(-50.000000, -50.000000) ">
                    <polyline id="path36" points="45.9944728 58.3931122 53.7113095 58.3931122 55.6282313 61.0321429 55.6282313 81.7057823 44.0781463 81.7057823 44.0781463 61.0305272 45.9944728 58.3931122"></polyline>
                    <polyline id="path38" points="41.019983 49.1715986 43.4042517 56.5103741 41.4866497 59.1498299 21.8248299 65.5382653 18.2554422 54.5533163 37.9201531 48.1641156 41.019983 49.1715986"></polyline>
                    <polyline id="path40" points="48.252466 41.5905612 42.010119 46.1279762 38.907398 45.1181973 26.7557823 28.3926871 36.0995748 21.6045918 48.252466 38.3310374 48.252466 41.5905612"></polyline>
                    <polyline id="path42" points="57.6972789 46.1279762 51.4535714 41.5922619 51.4545068 38.3304422 63.6057823 21.6045918 72.9506803 28.3926871 60.7970238 45.1198129 57.6972789 46.1279762"></polyline>
                    <polyline id="path44" points="56.2998299 56.512415 58.6854592 49.1722789 61.7878401 48.1658163 81.4498299 54.5533163 77.8809524 65.5382653 58.2177721 59.1488095 56.2998299 56.512415"></polyline>
                    <path d="M49.8555272,99.6496599 C22.3855442,99.6496599 0.0362244898,77.3044218 0.0362244898,49.8382653 C0.0362244898,22.3622449 22.3855442,0.0102891156 49.8555272,0.0102891156 C77.3231293,0.0102891156 99.6692177,22.3622449 99.6692177,49.8382653 C99.6692177,77.3044218 77.3231293,99.6496599 49.8555272,99.6496599 Z M49.8555272,89.5637755 C71.7919218,89.5637755 89.582483,71.7806122 89.582483,49.8382653 C89.582483,27.8885204 71.7919218,10.0977891 49.8555272,10.0977891 C27.9104592,10.0977891 10.1230442,27.8885204 10.1230442,49.8382653 C10.1230442,71.7806122 27.9104592,89.5637755 49.8555272,89.5637755 Z" id="path46"></path>
                    <polyline id="path48" points="80.0280612 38.7655612 65.0815476 43.6227891 66.0704082 46.6676871 81.0161565 41.8104592 80.0280612 38.7655612"></polyline>
                    <polyline id="path50" points="60.9657313 62.7613946 58.3758503 64.6427721 67.6123299 77.3579932 70.2028912 75.4770408 60.9657313 62.7613946"></polyline>
                    <polyline id="path52" points="38.900085 62.8779762 29.6645408 75.5926871 32.255102 77.4744898 41.4906463 64.7590136 38.900085 62.8779762"></polyline>
                    <polyline id="path54" points="19.6163265 38.9565476 18.6277211 42.0008503 33.5731293 46.8554422 34.5613095 43.8111395 19.6163265 38.9565476"></polyline>
                    <polygon id="path56" points="48.1538265 18.077381 51.3545578 18.077381 51.3545578 33.7930272 48.1538265 33.7930272 48.1538265 18.077381"></polygon>
                </g>
            </g>
        </g>
    </g>
</svg>