<?xml version="1.0" encoding="UTF-8"?>
<svg width="273px" height="75px" viewBox="0 0 273 75" version="1.1" xmlns="http://www.w3.org/2000/svg" xmlns:xlink="http://www.w3.org/1999/xlink">
    <!-- Generator: Sketch 48.2 (47327) - http://www.bohemiancoding.com/sketch -->
    <title>jasmine-purple-horizontal</title>
    <desc>Created with Sketch.</desc>
    <defs></defs>
    <g id="Page-1" stroke="none" stroke-width="1" fill="none" fill-rule="evenodd">
        <g id="jasmine-purple-horizontal" fill="#8A4182">
            <g id="logo" transform="translate(8.000000, 9.000000)">
                <g transform="translate(28.500000, 28.500000) scale(1, -1) translate(-28.500000, -28.500000) ">
                    <polyline id="path36" fill-rule="nonzero" points="26.2168495 33.284074 30.6154464 33.284074 31.7080918 34.7883214 31.7080918 46.5722959 25.1245434 46.5722959 25.1245434 34.7874005 26.2168495 33.284074"></polyline>
                    <polyline id="path38" fill-rule="nonzero" points="23.3813903 28.0278112 24.7404235 32.2109133 23.6473903 33.7154031 12.4401531 37.3568112 10.405602 31.0953903 21.6144872 27.4535459 23.3813903 28.0278112"></polyline>
                    <polyline id="path40" fill-rule="nonzero" points="27.5039056 23.7066199 23.9457679 26.2929464 22.1772168 25.7173724 15.2507959 16.1838316 20.5767577 12.3146173 27.5039056 21.8486913 27.5039056 23.7066199"></polyline>
                    <polyline id="path42" fill-rule="nonzero" points="32.887449 26.2929464 29.3285357 23.7075893 29.3290689 21.848352 36.2552959 12.3146173 41.5818878 16.1838316 34.6543036 25.7182934 32.887449 26.2929464"></polyline>
                    <polyline id="path44" fill-rule="nonzero" points="32.0909031 32.2120765 33.4507117 28.028199 35.2190689 27.4545153 46.4264031 31.0953903 44.3921429 37.3568112 33.1841301 33.7148214 32.0909031 32.2120765"></polyline>
                    <path d="M28.4176505,56.8003061 C12.7597602,56.8003061 0.0206479592,44.0635204 0.0206479592,28.4078112 C0.0206479592,12.7464796 12.7597602,0.00586479592 28.4176505,0.00586479592 C44.0741837,0.00586479592 56.8114541,12.7464796 56.8114541,28.4078112 C56.8114541,44.0635204 44.0741837,56.8003061 28.4176505,56.8003061 Z M28.4176505,51.051352 C40.9213954,51.051352 51.0620153,40.914949 51.0620153,28.4078112 C51.0620153,15.8964566 40.9213954,5.7557398 28.4176505,5.7557398 C15.9089617,5.7557398 5.7701352,15.8964566 5.7701352,28.4078112 C5.7701352,40.914949 15.9089617,51.051352 28.4176505,51.051352 Z" id="path46" fill-rule="nonzero"></path>
                    <polyline id="path48" fill-rule="nonzero" points="45.6159949 22.0963699 37.0964821 24.8649898 37.6601327 26.6005816 46.1792092 23.8319617 45.6159949 22.0963699"></polyline>
                    <polyline id="path50" fill-rule="nonzero" points="34.7504668 35.7739949 33.2742347 36.8463801 38.5390281 44.0940561 40.015648 43.0219133 34.7504668 35.7739949"></polyline>
                    <polyline id="path52" fill-rule="nonzero" points="22.1730485 35.8404464 16.9087883 43.0878316 18.3854082 44.1604592 23.6496684 36.9126378 22.1730485 35.8404464"></polyline>
                    <polyline id="path54" fill-rule="nonzero" points="11.1813061 22.2052321 10.617801 23.9404847 19.1366837 26.707602 19.6999464 24.9723495 11.1813061 22.2052321"></polyline>
                    <polygon id="path56" fill-rule="nonzero" points="27.4476811 10.3041071 29.272098 10.3041071 29.272098 19.2620255 27.4476811 19.2620255 27.4476811 10.3041071"></polygon>
                </g>
            </g>
            <g id="text" transform="translate(70.000000, 20.784810)">
                <g transform="translate(94.599684, 17.000000) scale(1, -1) translate(-94.599684, -17.000000) translate(0.299051, 0.000000)">
                    <path d="M6.87816456,10.1717 C6.92401899,8.1541 8.15810127,6.0916 10.4433465,6.0916 C11.8144937,6.0916 12.8198022,6.7332 13.505625,7.8793 C14.1450949,9.0258 14.1450949,10.7219 14.1450949,12.00565 L14.1450949,28.46485 L10.5804114,28.46485 L10.5804114,33.692 L23.8796915,33.692 L23.8796915,28.46485 L20.3608623,28.46485 L20.3608623,11.22635 C20.3608623,8.2918 20.1774446,5.9998 18.1214715,3.61545 C16.2932753,1.50645 13.3227057,0.31445 10.4887025,0.31445 C4.63877373,0.31445 0.159493671,4.2115 0.388765823,10.1717 L6.87816456,10.1717" id="path22" fill-rule="nonzero"></path>
                    <path d="M44.6283228,13.33475 C44.6283228,17.3699 41.2919146,20.6254 37.270182,20.6254 C33.1113845,20.6254 29.9120411,17.18635 29.9120411,13.06035 C29.9120411,9.0711 33.2484494,5.7703 37.1789715,5.7703 C41.383125,5.7703 44.6283228,9.1629 44.6283228,13.33475 Z M44.5371123,4.2574 C42.7542722,1.55255 39.8754114,0.31445 36.676068,0.31445 C29.6832674,0.31445 24.1538212,6.1369 24.1538212,13.06035 C24.1538212,20.1668 29.8208307,26.08085 36.9501978,26.08085 C40.1036867,26.08085 42.845981,24.61405 44.5371123,21.9547 L44.5371123,25.43905 L53.2664003,25.43905 L53.2664003,20.2127 L50.2041218,20.2127 L50.2041218,6.1828 L53.2664003,6.1828 L53.2664003,0.95645 L44.5371123,0.95645 L44.5371123,4.2574 Z" id="path24" fill-rule="nonzero"></path>
                    <path d="M60.6240427,8.0629 C60.806962,5.8621 62.2693196,4.3955 64.5545649,4.3955 C66.2456962,4.3955 67.8904747,5.5867 67.8904747,7.4207 C67.8904747,9.851 65.6057278,10.2635 63.7316772,10.76775 C59.4811709,11.86795 54.8194699,13.19805 54.8194699,18.5617 C54.8194699,23.2385 58.7499921,25.94335 63.0922073,25.94335 C65.2852453,25.94335 67.2505063,25.48455 68.6216535,23.74295 L68.6216535,25.43905 L72.7350949,25.43905 L72.7350949,18.7908 L67.3417168,18.7908 C67.2505063,20.5336 65.9252136,21.6795 64.1887263,21.6795 C62.6805142,21.6795 61.0810918,20.8084 61.0810918,19.1121 C61.0810918,16.81975 63.3204826,16.3156 65.1028244,15.9031 C69.4898972,14.89435 74.1974525,13.51835 74.1974525,8.0164 C74.1974525,3.06505 70.0386551,0.31445 65.468663,0.31445 C63,0.31445 60.7606092,1.09355 59.1611867,2.97345 L59.1611867,0.95645 L54.9111788,0.95645 L54.9111788,8.0629 L60.6240427,8.0629" id="path26" fill-rule="nonzero"></path>
                    <path d="M78.8586551,20.2127 L75.7056646,20.2127 L75.7056646,25.43905 L83.9320491,25.43905 L83.9320491,21.7713 C85.4861155,24.33865 87.8625712,26.03515 90.9702057,26.03515 C94.3519699,26.03515 97.1859731,23.97225 98.5566218,20.9002 C99.882413,24.01775 103.172967,26.03515 106.554731,26.03515 C109.205815,26.03515 111.811044,24.93515 113.592888,22.9176 C115.512793,20.6707 115.512793,18.241 115.512793,15.44475 L115.512793,6.1828 L118.666282,6.1828 L118.666282,0.95645 L106.783006,0.95645 L106.783006,6.1828 L109.936994,6.1828 L109.936994,14.06855 C109.936994,15.67365 109.936994,17.0949 109.205815,18.5164 C108.291717,19.8455 106.783006,20.5336 105.229937,20.5336 C103.721725,20.5336 102.075949,19.8914 101.116495,18.7 C99.9736234,17.23225 99.9736234,15.85685 99.9736234,14.06855 L99.9736234,6.1828 L103.127112,6.1828 L103.127112,0.95645 L91.2443354,0.95645 L91.2443354,6.1828 L94.3983228,6.1828 L94.3983228,13.70195 C94.3983228,15.16935 94.3983228,17.0031 93.667144,18.2869 C92.8901108,19.7537 91.2901899,20.5336 89.644913,20.5336 C88.0908465,20.5336 86.7655538,19.9832 85.7602453,18.7449 C84.5256646,17.23225 84.4344541,15.62775 84.4344541,13.74785 L84.4344541,6.1828 L87.587943,6.1828 L87.587943,0.95645 L75.7056646,0.95645 L75.7056646,6.1828 L78.8586551,6.1828 L78.8586551,20.2127" id="path28" fill-rule="nonzero"></path>
                    <path d="M129.222769,27.77735 L123.64697,27.77735 L123.64697,33.692 L129.222769,33.692 L129.222769,27.77735 Z M129.222769,6.1828 L132.376258,6.1828 L132.376258,0.95645 L120.447627,0.95645 L120.447627,6.1828 L123.64697,6.1828 L123.64697,20.2127 L120.493481,20.2127 L120.493481,25.43905 L129.222769,25.43905 L129.222769,6.1828 Z" id="path30" fill-rule="nonzero"></path>
                    <path d="M137.22038,20.2127 L134.066891,20.2127 L134.066891,25.43905 L142.796179,25.43905 L142.796179,21.9547 C144.259035,24.65975 147.000831,25.98965 150.016756,25.98965 C152.66784,25.98965 155.272571,24.88885 157.055411,22.9633 C159.066028,20.7166 159.111883,18.5617 159.111883,15.76545 L159.111883,6.1828 L162.265372,6.1828 L162.265372,0.95645 L150.383093,0.95645 L150.383093,6.1828 L153.536084,6.1828 L153.536084,14.11465 C153.536084,15.62775 153.536084,17.18635 152.576131,18.5164 C151.570823,19.8455 149.925546,20.4871 148.280269,20.4871 C146.589138,20.4871 144.85265,19.7996 143.847342,18.4246 C142.796179,17.0496 142.796179,14.94025 142.796179,13.28925 L142.796179,6.1828 L145.949169,6.1828 L145.949169,0.95645 L134.066891,0.95645 L134.066891,6.1828 L137.22038,6.1828 L137.22038,20.2127" id="path32" fill-rule="nonzero"></path>
                    <path d="M183.242278,15.39825 C182.283323,18.9285 179.17519,21.1756 175.564652,21.1756 C172.273101,21.1756 169.120111,18.6082 168.434786,15.39825 L183.242278,15.39825 Z M187.492286,8.1541 C185.57288,3.47795 181.049241,0.31445 175.976345,0.31445 C168.845483,0.31445 163.133117,5.908 163.133117,13.10625 C163.133117,20.3504 168.571851,26.17265 175.838283,26.17265 C179.221044,26.17265 182.602809,24.65975 184.978766,22.2295 C187.402073,19.6623 188.407381,16.54475 188.407381,13.06035 L188.224462,11.08865 L168.480641,11.08865 C169.21182,7.6955 172.319953,5.2205 175.793426,5.2205 C178.215237,5.2205 180.317065,6.1369 181.68871,8.1541 L187.492286,8.1541 Z" id="path34" fill-rule="nonzero"></path>
                </g>
            </g>
        </g>
    </g>
</svg>