<?xml version="1.0" encoding="UTF-8"?>
<svg width="273px" height="75px" viewBox="0 0 273 75" version="1.1" xmlns="http://www.w3.org/2000/svg" xmlns:xlink="http://www.w3.org/1999/xlink">
    <!-- Generator: Sketch 48.2 (47327) - http://www.bohemiancoding.com/sketch -->
    <title>jasmine-white-horizontal copy</title>
    <desc>Created with Sketch.</desc>
    <defs></defs>
    <g id="Page-1" stroke="none" stroke-width="1" fill="none" fill-rule="evenodd">
        <g id="jasmine-white-horizontal-copy" fill="#FFFFFF" fill-rule="nonzero">
            <g id="logo" transform="translate(8.000000, 9.000000)">
                <g transform="translate(28.500000, 28.500000) scale(1, -1) translate(-28.500000, -28.500000) ">
                    <polyline id="path36" points="26.2168495 33.284074 30.6154464 33.284074 31.7080918 34.7883214 31.7080918 46.5722959 25.1245434 46.5722959 25.1245434 34.7874005 26.2168495 33.284074"></polyline>
                    <polyline id="path38" points="23.3813903 28.0278112 24.7404235 32.2109133 23.6473903 33.7154031 12.4401531 37.3568112 10.405602 31.0953903 21.6144872 27.4535459 23.3813903 28.0278112"></polyline>
                    <polyline id="path40" points="27.5039056 23.7066199 23.9457679 26.2929464 22.1772168 25.7173724 15.2507959 16.1838316 20.5767577 12.3146173 27.5039056 21.8486913 27.5039056 23.7066199"></polyline>
                    <polyline id="path42" points="32.887449 26.2929464 29.3285357 23.7075893 29.3290689 21.848352 36.2552959 12.3146173 41.5818878 16.1838316 34.6543036 25.7182934 32.887449 26.2929464"></polyline>
                    <polyline id="path44" points="32.0909031 32.2120765 33.4507117 28.028199 35.2190689 27.4545153 46.4264031 31.0953903 44.3921429 37.3568112 33.1841301 33.7148214 32.0909031 32.2120765"></polyline>
                    <path d="M28.4176505,56.8003061 C12.7597602,56.8003061 0.0206479592,44.0635204 0.0206479592,28.4078112 C0.0206479592,12.7464796 12.7597602,0.00586479592 28.4176505,0.00586479592 C44.0741837,0.00586479592 56.8114541,12.7464796 56.8114541,28.4078112 C56.8114541,44.0635204 44.0741837,56.8003061 28.4176505,56.8003061 Z M28.4176505,51.051352 C40.9213954,51.051352 51.0620153,40.914949 51.0620153,28.4078112 C51.0620153,15.8964566 40.9213954,5.7557398 28.4176505,5.7557398 C15.9089617,5.7557398 5.7701352,15.8964566 5.7701352,28.4078112 C5.7701352,40.914949 15.9089617,51.051352 28.4176505,51.051352 Z" id="path46"></path>
                    <polyline id="path48" points="45.6159949 22.0963699 37.0964821 24.8649898 37.6601327 26.6005816 46.1792092 23.8319617 45.6159949 22.0963699"></polyline>
                    <polyline id="path50" points="34.7504668 35.7739949 33.2742347 36.8463801 38.5390281 44.0940561 40.015648 43.0219133 34.7504668 35.7739949"></polyline>
                    <polyline id="path52" points="22.1730485 35.8404464 16.9087883 43.0878316 18.3854082 44.1604592 23.6496684 36.9126378 22.1730485 35.8404464"></polyline>
                    <polyline id="path54" points="11.1813061 22.2052321 10.617801 23.9404847 19.1366837 26.707602 19.6999464 24.9723495 11.1813061 22.2052321"></polyline>
                    <polygon id="path56" points="27.4476811 10.3041071 29.272098 10.3041071 29.272098 19.2620255 27.4476811 19.2620255 27.4476811 10.3041071"></polygon>
                </g>
            </g>
            <g id="text" transform="translate(70.000000, 19.784810)">
                <g transform="translate(94.799051, 17.892405) scale(1, -1) translate(-94.799051, -17.892405) translate(0.299051, 0.892405)">
                    <path d="M6.87816456,10.1395111 C6.92401899,8.12829589 8.15810127,6.07232278 10.4433465,6.07232278 C11.8144937,6.07232278 12.8198022,6.71189241 13.505625,7.85436551 C14.1450949,8.99723734 14.1450949,10.6879699 14.1450949,11.9676574 L14.1450949,28.3747714 L10.5804114,28.3747714 L10.5804114,33.5853797 L23.8796915,33.5853797 L23.8796915,28.3747714 L20.3608623,28.3747714 L20.3608623,11.1908236 C20.3608623,8.26556013 20.1774446,5.98081329 18.1214715,3.6040087 C16.2932753,1.50168275 13.3227057,0.313454905 10.4887025,0.313454905 C4.63877373,0.313454905 0.159493671,4.19817247 0.388765823,10.1395111 L6.87816456,10.1395111" id="path22"></path>
                    <path d="M44.6283228,13.2925514 C44.6283228,17.314932 41.2919146,20.5601297 37.270182,20.5601297 C33.1113845,20.5601297 29.9120411,17.1319628 29.9120411,13.0190198 C29.9120411,9.04239399 33.2484494,5.75203956 37.1789715,5.75203956 C41.383125,5.75203956 44.6283228,9.13390348 44.6283228,13.2925514 Z M44.5371123,4.24392722 C42.7542722,1.54763687 39.8754114,0.313454905 36.676068,0.313454905 C29.6832674,0.313454905 24.1538212,6.11747943 24.1538212,13.0190198 C24.1538212,20.102981 29.8208307,25.9983157 36.9501978,25.9983157 C40.1036867,25.9983157 42.845981,24.5361574 44.5371123,21.8852231 L44.5371123,25.3585467 L53.2664003,25.3585467 L53.2664003,20.1487358 L50.2041218,20.1487358 L50.2041218,6.16323418 L53.2664003,6.16323418 L53.2664003,0.953423259 L44.5371123,0.953423259 L44.5371123,4.24392722 Z" id="path24"></path>
                    <path d="M60.6240427,8.03738449 C60.806962,5.84354905 62.2693196,4.38159019 64.5545649,4.38159019 C66.2456962,4.38159019 67.8904747,5.56902057 67.8904747,7.39721677 C67.8904747,9.81982595 65.6057278,10.2310206 63.7316772,10.7336748 C59.4811709,11.8303932 54.8194699,13.156284 54.8194699,18.5029604 C54.8194699,23.1649604 58.7499921,25.8612508 63.0922073,25.8612508 C65.2852453,25.8612508 67.2505063,25.4039027 68.6216535,23.6678141 L68.6216535,25.3585467 L72.7350949,25.3585467 L72.7350949,18.7313354 L67.3417168,18.7313354 C67.2505063,20.4686203 65.9252136,21.610894 64.1887263,21.610894 C62.6805142,21.610894 61.0810918,20.7425506 61.0810918,19.0516187 C61.0810918,16.7665229 63.3204826,16.2639684 65.1028244,15.8527737 C69.4898972,14.847216 74.1974525,13.4755704 74.1974525,7.99103165 C74.1974525,3.05535047 70.0386551,0.313454905 65.468663,0.313454905 C63,0.313454905 60.7606092,1.0900894 59.1611867,2.96404035 L59.1611867,0.953423259 L54.9111788,0.953423259 L54.9111788,8.03738449 L60.6240427,8.03738449" id="path26"></path>
                    <path d="M78.8586551,20.1487358 L75.7056646,20.1487358 L75.7056646,25.3585467 L83.9320491,25.3585467 L83.9320491,21.7024035 C85.4861155,24.261629 87.8625712,25.9527603 90.9702057,25.9527603 C94.3519699,25.9527603 97.1859731,23.8963884 98.5566218,20.8340601 C99.882413,23.9417445 103.172967,25.9527603 106.554731,25.9527603 C109.205815,25.9527603 111.811044,24.8562413 113.592888,22.8450759 C115.512793,20.6052864 115.512793,18.1832753 115.512793,15.3958742 L115.512793,6.16323418 L118.666282,6.16323418 L118.666282,0.953423259 L106.783006,0.953423259 L106.783006,6.16323418 L109.936994,6.16323418 L109.936994,14.0240293 C109.936994,15.6240498 109.936994,17.0408022 109.205815,18.4578038 C108.291717,19.7826978 106.783006,20.4686203 105.229937,20.4686203 C103.721725,20.4686203 102.075949,19.8284525 101.116495,18.6408228 C99.9736234,17.1777176 99.9736234,15.8066701 99.9736234,14.0240293 L99.9736234,6.16323418 L103.127112,6.16323418 L103.127112,0.953423259 L91.2443354,0.953423259 L91.2443354,6.16323418 L94.3983228,6.16323418 L94.3983228,13.6585894 C94.3983228,15.1213457 94.3983228,16.9492927 93.667144,18.2290301 C92.8901108,19.6911883 91.2901899,20.4686203 89.644913,20.4686203 C88.0908465,20.4686203 86.7655538,19.919962 85.7602453,18.6855807 C84.5256646,17.1777176 84.4344541,15.5782951 84.4344541,13.7043441 L84.4344541,6.16323418 L87.587943,6.16323418 L87.587943,0.953423259 L75.7056646,0.953423259 L75.7056646,6.16323418 L78.8586551,6.16323418 L78.8586551,20.1487358" id="path28"></path>
                    <path d="M129.222769,27.689447 L123.64697,27.689447 L123.64697,33.5853797 L129.222769,33.5853797 L129.222769,27.689447 Z M129.222769,6.16323418 L132.376258,6.16323418 L132.376258,0.953423259 L120.447627,0.953423259 L120.447627,6.16323418 L123.64697,6.16323418 L123.64697,20.1487358 L120.493481,20.1487358 L120.493481,25.3585467 L129.222769,25.3585467 L129.222769,6.16323418 Z" id="path30"></path>
                    <path d="M137.22038,20.1487358 L134.066891,20.1487358 L134.066891,25.3585467 L142.796179,25.3585467 L142.796179,21.8852231 C144.259035,24.5817128 147.000831,25.9074043 150.016756,25.9074043 C152.66784,25.9074043 155.272571,24.8100878 157.055411,22.8906313 C159.066028,20.6510411 159.111883,18.5029604 159.111883,15.7155593 L159.111883,6.16323418 L162.265372,6.16323418 L162.265372,0.953423259 L150.383093,0.953423259 L150.383093,6.16323418 L153.536084,6.16323418 L153.536084,14.0699834 C153.536084,15.5782951 153.536084,17.1319628 152.576131,18.4578038 C151.570823,19.7826978 149.925546,20.4222674 148.280269,20.4222674 C146.589138,20.4222674 144.85265,19.736943 143.847342,18.3662943 C142.796179,16.9956456 142.796179,14.8929707 142.796179,13.2471954 L142.796179,6.16323418 L145.949169,6.16323418 L145.949169,0.953423259 L134.066891,0.953423259 L134.066891,6.16323418 L137.22038,6.16323418 L137.22038,20.1487358" id="path32"></path>
                    <path d="M183.242278,15.3495214 C182.283323,18.8685997 179.17519,21.1085886 175.564652,21.1085886 C172.273101,21.1085886 169.120111,18.5493133 168.434786,15.3495214 L183.242278,15.3495214 Z M187.492286,8.12829589 C185.57288,3.46694383 181.049241,0.313454905 175.976345,0.313454905 C168.845483,0.313454905 163.133117,5.8893038 163.133117,13.0647745 C163.133117,20.286 168.571851,26.0898252 175.838283,26.0898252 C179.221044,26.0898252 182.602809,24.5817128 184.978766,22.1591535 C187.402073,19.6000775 188.407381,16.4923932 188.407381,13.0190198 L188.224462,11.0535593 L168.480641,11.0535593 C169.21182,7.67114715 172.319953,5.20397943 175.793426,5.20397943 C178.215237,5.20397943 180.317065,6.11747943 181.68871,8.12829589 L187.492286,8.12829589 Z" id="path34"></path>
                </g>
            </g>
        </g>
    </g>
</svg>