<?xml version="1.0" encoding="UTF-8"?>
<svg width="150px" height="54px" viewBox="0 0 150 54" version="1.1" xmlns="http://www.w3.org/2000/svg" xmlns:xlink="http://www.w3.org/1999/xlink">
    <!-- Generator: Sketch 48.2 (47327) - http://www.bohemiancoding.com/sketch -->
    <title>pivotal-logo</title>
    <desc>Created with Sketch.</desc>
    <defs>
        <polygon id="path-1" points="0 53.1346138 0 0 149.798544 0 149.798544 53.1346138"></polygon>
    </defs>
    <g id="Page-1" stroke="none" stroke-width="1" fill="none" fill-rule="evenodd">
        <g id="pivotal-logo">
            <g id="pivotal_logo">
                <g id="g10" transform="translate(74.939320, 26.819196) scale(-1, 1) rotate(-180.000000) translate(-74.939320, -26.819196) translate(0.000000, 0.000000)">
                    <g id="g12">
                        <g id="g14">
                            <g id="g16-Clipped">
                                <mask id="mask-2" fill="white">
                                    <use xlink:href="#path-1"></use>
                                </mask>
                                <g id="path20"></g>
                                <g id="g16" mask="url(#mask-2)">
                                    <g transform="translate(0.000000, -0.060268)">
                                        <path d="M54.117233,26.6475536 C54.117233,22.5489174 50.7720267,19.2270737 46.6458131,19.2270737 C42.5193568,19.2270737 39.1741505,22.5489174 39.1741505,26.6475536 C39.1741505,30.7460089 42.5193568,34.0682746 46.6458131,34.0682746 C50.7720267,34.0682746 54.117233,30.7460089 54.117233,26.6475536" id="path22" stroke="none" fill="#FFFFFF" fill-rule="nonzero"></path>
                                        <path d="M54.9318568,46.1430603 L53.2299757,46.8034152 C52.6078277,47.0444866 51.846966,46.7605647 51.5387743,46.1722299 L44.6163228,32.957779 C45.2859223,33.1793237 46.0020024,33.3036563 46.7520024,33.3036563 C49.5237864,33.3036563 51.8578277,31.6538237 52.9097694,29.3125379 L55.8349515,44.5210112 C55.9605583,45.1723862 55.5540655,45.9022299 54.9318568,46.1430603 Z M40.2604369,24.6429844 L32.2303398,10.0652143 C31.9222087,9.47712054 32.1350728,8.71153795 32.703216,8.36355134 L46.0143204,0.217529598 C46.5825243,-0.130423259 47.150182,0.117946065 47.2753641,0.769590402 L51.4380461,21.6608705 C50.2237864,20.4807054 48.5752427,19.7445335 46.7520024,19.7445335 C43.6679612,19.7445335 41.0788835,21.8386004 40.2604369,24.6429844 Z" id="path24" stroke="none" fill="#1574C4" fill-rule="nonzero"></path>
                                        <path d="M59.6997573,18.4725804 L53.390716,25.2833304 C52.9443568,22.9074509 51.2465413,20.9444665 48.9997573,20.1405536 L57.0663228,13.820625 C57.5901699,13.4105625 58.2822816,13.5494196 58.6046723,14.130221 L59.9355583,16.5303281 C60.257949,17.1106473 60.1520024,17.9845312 59.6997573,18.4725804 Z M26.2121966,52.8461719 L18.8132888,45.3178728 C18.3472694,44.8435045 18.3944782,44.1193862 18.9185073,43.7087812 L40.0194175,27.1768259 C40.3202063,30.3460714 42.795267,32.9104687 46.001517,33.2605647 L27.8815534,52.8217031 C27.4297937,53.3097522 26.6781553,53.3206004 26.2121966,52.8461719 Z" id="path26" stroke="none" fill="#CBDAF2" fill-rule="nonzero"></path>
                                        <path d="M81.5455097,34.2149665 L80.2912621,36.556192 C79.9775485,37.1414531 79.1856796,37.5153549 78.5303398,37.3865625 L50.8084951,31.9445558 C52.454915,30.7029174 53.5108617,28.7317366 53.5108617,26.5261138 C53.5108617,25.3463705 53.2010922,24.2305112 52.6611044,23.2563415 L80.9660194,32.7647411 C81.598301,32.9768839 81.8592233,33.6297054 81.5455097,34.2149665 Z M39.9868932,26.5261138 C39.9868932,27.7971629 40.3424757,28.9876339 40.9532767,30.0100781 L6.46595874,23.2398281 C5.81101942,23.1115179 5.47918083,22.5029933 5.72877427,21.8885625 L10.4115291,10.3335871 C10.6608617,9.71843304 11.3821602,9.38882812 12.0143204,9.60139286 L43.9927184,20.3441384 C41.6307039,21.4137121 39.9868932,23.8001384 39.9868932,26.5261138 Z" id="path28" stroke="none" fill="#83AADF" fill-rule="nonzero"></path>
                                        <path d="M46.7507888,30.4837835 C48.9598908,30.4837835 50.6985437,28.6934063 50.6985437,26.5251496 C50.6985437,24.3651496 48.9350121,22.5641652 46.7507888,22.5641652 C44.564199,22.5641652 42.7992718,24.3651496 42.7992718,26.5251496 C42.7992718,28.6934062 44.5381068,30.4837835 46.7507888,30.4837835" id="path30" stroke="none" fill="#C4122E" fill-rule="nonzero"></path>
                                        <path d="M46.7507888,30.4837835 C48.9598908,30.4837835 50.6985437,28.6934063 50.6985437,26.5251496 C50.6985437,24.3651496 48.9350121,22.5641652 46.7507888,22.5641652 C44.564199,22.5641652 42.7992718,24.3651496 42.7992718,26.5251496 C42.7992718,28.6934062 44.5381068,30.4837835 46.7507888,30.4837835 Z" id="path32" stroke="#C4122E" stroke-width="1.875" fill="none"></path>
                                        <path d="M2.27074636,27.4080134 L3.78536408,27.4080134 C4.58771238,27.4080134 5.38768811,27.6834375 5.38768811,28.636875 C5.38768811,29.6927679 4.31038835,29.8375312 3.43692961,29.8375312 L2.27074636,29.8375312 L2.27074636,27.4080134 Z M0,31.7479621 L3.83040049,31.7479621 C5.9707767,31.7479621 7.7473301,31.0675982 7.7473301,28.636875 C7.7473301,26.2367679 6.10115291,25.4998728 3.93114078,25.4998728 L2.27074636,25.4998728 L2.27074636,21.5071272 L0,21.5071272 L0,31.7479621 Z" id="path34" stroke="none" fill="#231F20" fill-rule="nonzero"></path>
                                        <polygon id="path36" stroke="none" fill="#231F20" fill-rule="nonzero" points="16.5731189 21.5071272 18.8450485 21.5071272 18.8450485 31.7479621 16.5731189 31.7479621 16.5731189 21.5071272"></polygon>
                                        <polyline id="path38" stroke="none" fill="#231F20" fill-rule="nonzero" points="25.9618932 31.7479621 28.5537621 31.7479621 31.1018811 25.0361116 31.1314927 25.0361116 33.7234223 31.7479621 36.1553398 31.7479621 31.903034 21.5071272 30.0826456 21.5071272 25.9618932 31.7479621"></polyline>
                                        <polyline id="path40" stroke="none" fill="#231F20" fill-rule="nonzero" points="61.9302184 29.7527946 58.9898058 29.7527946 58.9898058 31.7479621 67.1462379 31.7479621 67.1462379 29.7527946 64.2020631 29.7527946 64.2020631 21.5071272 61.9302184 21.5071272 61.9302184 29.7527946"></polyline>
                                        <path d="M76.9532767,28.7675357 L75.7014563,25.5858147 L78.2190534,25.5858147 L76.9532767,28.7675357 Z M76.0782767,31.7479621 L77.9593447,31.7479621 L82.4429612,21.5071272 L79.8792476,21.5071272 L78.9927184,23.6777344 L74.9872573,23.6777344 L74.1292476,21.5071272 L71.6237864,21.5071272 L76.0782767,31.7479621 Z" id="path42" stroke="none" fill="#231F20" fill-rule="nonzero"></path>
                                        <polyline id="path44" stroke="none" fill="#231F20" fill-rule="nonzero" points="88.5260922 31.7479621 90.7979369 31.7479621 90.7979369 23.5882969 95.0066748 23.5882969 95.0066748 21.5071272 88.5260922 21.5071272 88.5260922 31.7479621"></polyline>
                                        <polyline id="path46" stroke="none" fill="#231F20" fill-rule="nonzero" points="104.592233 31.7362098 105.811286 31.7362098 105.811286 22.6442612 110.520024 22.6442612 110.520024 21.5189397 104.592233 21.5189397 104.592233 31.7362098"></polyline>
                                        <path d="M120.834345,30.1765379 L120.804612,30.1765379 L118.668083,25.1550201 L122.868325,25.1550201 L120.834345,30.1765379 Z M120.28216,31.7362098 L121.427184,31.7362098 L125.804005,21.5189397 L124.378034,21.5189397 L123.333738,24.0284933 L118.188107,24.0284933 L117.128641,21.5189397 L115.748786,21.5189397 L120.28216,31.7362098 Z" id="path48" stroke="none" fill="#231F20" fill-rule="nonzero"></path>
                                        <path d="M132.07949,22.6442612 L134.143811,22.6442612 C135.336165,22.6442612 136.629248,23.1209799 136.629248,24.4204754 C136.629248,25.8471362 135.409587,26.2791362 134.173544,26.2791362 L132.07949,26.2791362 L132.07949,22.6442612 Z M132.07949,27.4080134 L133.76699,27.4080134 C134.912621,27.4080134 136.107403,27.6540268 136.107403,29.0665246 C136.107403,30.3213013 135.00182,30.6108884 133.896238,30.6108884 L132.07949,30.6108884 L132.07949,27.4080134 Z M130.85983,31.7362098 L133.999393,31.7362098 C135.698422,31.7362098 137.414442,31.1017701 137.414442,29.226596 C137.414442,28.0424531 136.715413,27.2467366 135.612257,26.9171317 L135.612257,26.8865156 C136.934466,26.7723683 137.9375,25.7188259 137.9375,24.3769621 C137.9375,22.1239688 135.830097,21.5189397 133.926578,21.5189397 L130.85983,21.5189397 L130.85983,31.7362098 Z" id="path50" stroke="none" fill="#231F20" fill-rule="nonzero"></path>
                                        <path d="M148.621359,29.9305246 C148.214806,30.5826228 147.487257,30.8698594 146.743932,30.8698594 C145.672937,30.8698594 144.554005,30.3660804 144.554005,29.1524665 C144.554005,28.2166875 145.073422,27.7975848 146.718447,27.274942 C148.31432,26.7723683 149.798544,26.253221 149.798544,24.2474464 C149.798544,22.2099107 148.041869,21.2576183 146.179005,21.2576183 C144.987864,21.2576183 143.709951,21.6460446 143.010922,22.6724665 L144.058859,23.5247143 C144.492718,22.7749219 145.367112,22.3829397 146.252427,22.3829397 C147.29915,22.3829397 148.489684,22.9926696 148.489684,24.159154 C148.489684,25.4163415 147.632888,25.6317388 145.802184,26.2367679 C144.347694,26.714692 143.242112,27.3502768 143.242112,29.0524219 C143.242112,31.0158281 144.945388,31.9975313 146.743932,31.9975313 C147.895024,31.9975313 148.867112,31.6796786 149.624393,30.7992254 L148.621359,29.9305246" id="path52" stroke="none" fill="#231F20" fill-rule="nonzero"></path>
                                    </g>
                                </g>
                            </g>
                        </g>
                    </g>
                </g>
            </g>
        </g>
    </g>
</svg>